<svg width="77" height="48" viewBox="0 0 77 48" fill="none" xmlns="http://www.w3.org/2000/svg">
<path d="M29.4322 23.7831C29.433 20.1859 30.2476 16.6355 31.815 13.3977C34.2025 8.46576 34.1987 1.71103 28.8447 0.544867C28.0148 0.364094 27.1733 0.227375 26.3236 0.136087C21.8862 -0.340629 17.4043 0.440791 13.3901 2.39102C9.3759 4.34125 5.99143 7.3816 3.62356 11.1645C1.2557 14.9474 0 19.3202 0 23.7831C0 28.246 1.2557 32.6188 3.62356 36.4017C5.99143 40.1846 9.3759 43.2249 13.3901 45.1752C17.4043 47.1254 21.8862 47.9068 26.3236 47.4301C27.1733 47.3388 28.0148 47.2021 28.8447 47.0213C34.1987 45.8552 34.2025 39.1004 31.815 34.1684C30.2476 30.9307 29.433 27.3803 29.4322 23.7831Z" fill="#EB001B"/>
<path d="M77 23.783C77.0032 28.2427 75.7513 32.6132 73.3873 36.3947C71.0233 40.1762 67.6427 43.216 63.6323 45.1665C59.6218 47.117 55.1434 47.8993 50.7091 47.4241C49.8628 47.3334 49.0245 47.1976 48.1978 47.018C42.8437 45.8551 42.8397 39.1004 45.227 34.169C46.7945 30.9311 47.6088 27.3804 47.6088 23.783C47.6088 20.1857 46.7945 16.635 45.227 13.3971C42.8397 8.46564 42.8437 1.71097 48.1978 0.548035C49.0245 0.368461 49.8628 0.23264 50.7091 0.141937C55.1434 -0.333268 59.6218 0.449112 63.6323 2.3996C67.6427 4.35008 71.0233 7.38991 73.3873 11.1714C75.7513 14.9529 77.0032 19.3234 77 23.783Z" fill="#F79E1B"/>
</svg>
